<svg viewBox="0 0 48 48" xmlns="http://www.w3.org/2000/svg" xmlns:xlink="http://www.w3.org/1999/xlink" width="48.000000" height="48.000000" fill="none">
	<rect id="budget-planning 1" width="48.000000" height="48.000000" x="0.000000" y="0.000000" fill="rgb(255,255,255)" fill-opacity="0" />
	<path id="Vector" d="M23.25 45L5.25 45C4.0125 45 3 43.9875 3 42.75L3 5.25C3 4.0125 4.0125 3 5.25 3L32.25 3C33.4875 3 34.5 4.0125 34.5 5.25L34.5 19.5C34.5 19.9125 34.8375 20.25 35.25 20.25C35.6625 20.25 36 19.9125 36 19.5L36 5.25C36 3.18 34.32 1.5 32.25 1.5L5.25 1.5C3.18 1.5 1.5 3.18 1.5 5.25L1.5 42.75C1.5 44.82 3.18 46.5 5.25 46.5L23.25 46.5C23.6625 46.5 24 46.1625 24 45.75C24 45.3375 23.6625 45 23.25 45Z" fill="rgb(28,28,28)" fill-rule="nonzero" />
	<path id="Vector" d="M42.75 21.7498L29.25 21.7498C27.18 21.7498 25.5 23.4298 25.5 25.4998L25.5 42.7498C25.5 44.8198 27.18 46.4998 29.25 46.4998L42.75 46.4998C44.82 46.4998 46.5 44.8198 46.5 42.7498L46.5 25.4998C46.5 23.4298 44.82 21.7498 42.75 21.7498ZM45 42.7498C45 43.9873 43.9875 44.9998 42.75 44.9998L29.25 44.9998C28.0125 44.9998 27 43.9873 27 42.7498L27 25.4998C27 24.2623 28.0125 23.2498 29.25 23.2498L42.75 23.2498C43.9875 23.2498 45 24.2623 45 25.4998L45 42.7498Z" fill="rgb(28,28,28)" fill-rule="nonzero" />
	<path id="Vector" d="M42 25.4998L30 25.4998C29.5875 25.4998 29.25 25.8373 29.25 26.2498L29.25 30.7498C29.25 31.1623 29.5875 31.4998 30 31.4998L42 31.4998C42.4125 31.4998 42.75 31.1623 42.75 30.7498L42.75 26.2498C42.75 25.8373 42.4125 25.4998 42 25.4998ZM41.25 29.9998L30.75 29.9998L30.75 26.9998L41.25 26.9998L41.25 29.9998Z" fill="rgb(28,28,28)" fill-rule="nonzero" />
	<path id="Vector" d="M31.5 33.7498L30 33.7498C29.5875 33.7498 29.25 34.0873 29.25 34.4998C29.25 34.9123 29.5875 35.2498 30 35.2498L31.5 35.2498C31.9125 35.2498 32.25 34.9123 32.25 34.4998C32.25 34.0873 31.9125 33.7498 31.5 33.7498Z" fill="rgb(28,28,28)" fill-rule="nonzero" />
	<path id="Vector" d="M36.75 33.7498L35.25 33.7498C34.8375 33.7498 34.5 34.0873 34.5 34.4998C34.5 34.9123 34.8375 35.2498 35.25 35.2498L36.75 35.2498C37.1625 35.2498 37.5 34.9123 37.5 34.4998C37.5 34.0873 37.1625 33.7498 36.75 33.7498Z" fill="rgb(28,28,28)" fill-rule="nonzero" />
	<path id="Vector" d="M42 33.7498L40.5 33.7498C40.0875 33.7498 39.75 34.0873 39.75 34.4998C39.75 34.9123 40.0875 35.2498 40.5 35.2498L42 35.2498C42.4125 35.2498 42.75 34.9123 42.75 34.4998C42.75 34.0873 42.4125 33.7498 42 33.7498Z" fill="rgb(28,28,28)" fill-rule="nonzero" />
	<path id="Vector" d="M31.5 37.4998L30 37.4998C29.5875 37.4998 29.25 37.8373 29.25 38.2498C29.25 38.6623 29.5875 38.9998 30 38.9998L31.5 38.9998C31.9125 38.9998 32.25 38.6623 32.25 38.2498C32.25 37.8373 31.9125 37.4998 31.5 37.4998Z" fill="rgb(28,28,28)" fill-rule="nonzero" />
	<path id="Vector" d="M36.75 37.4998L35.25 37.4998C34.8375 37.4998 34.5 37.8373 34.5 38.2498C34.5 38.6623 34.8375 38.9998 35.25 38.9998L36.75 38.9998C37.1625 38.9998 37.5 38.6623 37.5 38.2498C37.5 37.8373 37.1625 37.4998 36.75 37.4998Z" fill="rgb(28,28,28)" fill-rule="nonzero" />
	<path id="Vector" d="M42 37.4998L40.5 37.4998C40.0875 37.4998 39.75 37.8373 39.75 38.2498C39.75 38.6623 40.0875 38.9998 40.5 38.9998L42 38.9998C42.4125 38.9998 42.75 38.6623 42.75 38.2498C42.75 37.8373 42.4125 37.4998 42 37.4998Z" fill="rgb(28,28,28)" fill-rule="nonzero" />
	<path id="Vector" d="M31.5 41.2498L30 41.2498C29.5875 41.2498 29.25 41.5873 29.25 41.9998C29.25 42.4123 29.5875 42.7498 30 42.7498L31.5 42.7498C31.9125 42.7498 32.25 42.4123 32.25 41.9998C32.25 41.5873 31.9125 41.2498 31.5 41.2498Z" fill="rgb(28,28,28)" fill-rule="nonzero" />
	<path id="Vector" d="M36.75 41.2498L35.25 41.2498C34.8375 41.2498 34.5 41.5873 34.5 41.9998C34.5 42.4123 34.8375 42.7498 35.25 42.7498L36.75 42.7498C37.1625 42.7498 37.5 42.4123 37.5 41.9998C37.5 41.5873 37.1625 41.2498 36.75 41.2498Z" fill="rgb(28,28,28)" fill-rule="nonzero" />
	<path id="Vector" d="M42 41.2498L40.5 41.2498C40.0875 41.2498 39.75 41.5873 39.75 41.9998C39.75 42.4123 40.0875 42.7498 40.5 42.7498L42 42.7498C42.4125 42.7498 42.75 42.4123 42.75 41.9998C42.75 41.5873 42.4125 41.2498 42 41.2498Z" fill="rgb(28,28,28)" fill-rule="nonzero" />
	<path id="Vector" d="M21.75 10.8749C21.75 11.2874 22.0875 11.6249 22.5 11.6249C22.9125 11.6249 23.25 11.2874 23.25 10.8749C23.25 9.17243 21.6525 7.80743 19.5 7.54493L19.5 6.74243C19.5 6.32993 19.1625 5.99243 18.75 5.99243C18.3375 5.99243 18 6.32993 18 6.74243L18 7.54493C15.8475 7.80743 14.25 9.17243 14.25 10.8749C14.25 12.5774 15.8475 13.9424 18 14.2049L18 17.9324C16.725 17.7149 15.75 16.9799 15.75 16.1249C15.75 15.7124 15.4125 15.3749 15 15.3749C14.5875 15.3749 14.25 15.7124 14.25 16.1249C14.25 17.8274 15.8475 19.1924 18 19.4549L18 20.2499C18 20.6624 18.3375 20.9999 18.75 20.9999C19.1625 20.9999 19.5 20.6624 19.5 20.2499L19.5 19.4549C21.6525 19.1924 23.25 17.8274 23.25 16.1249C23.25 14.4224 21.6525 13.0574 19.5 12.7949L19.5 9.06743C20.775 9.28493 21.75 10.0199 21.75 10.8749ZM15.75 10.8749C15.75 10.0199 16.725 9.28493 18 9.06743L18 12.6749C16.725 12.4574 15.75 11.7224 15.75 10.8674L15.75 10.8749ZM21.75 16.1249C21.75 16.9799 20.775 17.7149 19.5 17.9324L19.5 14.3249C20.775 14.5424 21.75 15.2774 21.75 16.1324L21.75 16.1249Z" fill="rgb(28,28,28)" fill-rule="nonzero" />
	<path id="Vector" d="M21.75 23.9998L9 23.9998C8.5875 23.9998 8.25 24.3373 8.25 24.7498C8.25 25.1623 8.5875 25.4998 9 25.4998L21.75 25.4998C22.1625 25.4998 22.5 25.1623 22.5 24.7498C22.5 24.3373 22.1625 23.9998 21.75 23.9998Z" fill="rgb(28,28,28)" fill-rule="nonzero" />
	<path id="Vector" d="M21.75 29.9998L9 29.9998C8.5875 29.9998 8.25 30.3373 8.25 30.7498C8.25 31.1623 8.5875 31.4998 9 31.4998L21.75 31.4998C22.1625 31.4998 22.5 31.1623 22.5 30.7498C22.5 30.3373 22.1625 29.9998 21.75 29.9998Z" fill="rgb(28,28,28)" fill-rule="nonzero" />
	<path id="Vector" d="M21.75 35.9998L9 35.9998C8.5875 35.9998 8.25 36.3373 8.25 36.7498C8.25 37.1623 8.5875 37.4998 9 37.4998L21.75 37.4998C22.1625 37.4998 22.5 37.1623 22.5 36.7498C22.5 36.3373 22.1625 35.9998 21.75 35.9998Z" fill="rgb(28,28,28)" fill-rule="nonzero" />
</svg>
