<svg viewBox="0 0 40 40" xmlns="http://www.w3.org/2000/svg" xmlns:xlink="http://www.w3.org/1999/xlink" width="40.000000" height="40.000000" fill="none" customFrame="#000000">
	<rect id="comment-01" width="40.000000" height="40.000000" x="0.000000" y="0.000000" />
	<path id="Vector" d="M13.3334 22.4998L26.6667 22.4998M13.3334 14.1665L20 14.1665" fill-rule="nonzero" stroke="rgb(115,115,115)" stroke-linecap="round" stroke-linejoin="round" stroke-width="2.5" />
	<path id="Vector" d="M10.1647 31.6665C7.99787 31.4533 6.37462 30.8025 5.28599 29.7138C3.33337 27.7613 3.33337 24.6185 3.33337 18.3332L3.33337 17.4998C3.33337 11.2144 3.33337 8.07175 5.28599 6.11912C7.23862 4.1665 10.3813 4.1665 16.6667 4.1665L23.3334 4.1665C29.6187 4.1665 32.7615 4.1665 34.714 6.11912C36.6667 8.07175 36.6667 11.2144 36.6667 17.4998L36.6667 18.3332C36.6667 24.6185 36.6667 27.7613 34.714 29.7138C32.7615 31.6665 29.6187 31.6665 23.3334 31.6665C22.3992 31.6873 21.6552 31.7583 20.9244 31.9248C18.927 32.3847 17.0775 33.4067 15.2498 34.298C12.6455 35.5678 11.3434 36.2028 10.5262 35.6083C8.96286 34.444 10.4909 30.8363 10.8334 29.1665" fill-rule="nonzero" stroke="rgb(115,115,115)" stroke-linecap="round" stroke-width="2.5" />
</svg>
