<svg viewBox="0 0 40 40" xmlns="http://www.w3.org/2000/svg" xmlns:xlink="http://www.w3.org/1999/xlink" width="40.000000" height="40.000000" fill="none" customFrame="#000000">
	<rect id="departement" width="40.000000" height="40.000000" x="0.000000" y="0.000000" />
	<path id="Vector" d="M34.9998 15.2138C34.9988 13.3216 34.9983 12.3756 34.5383 11.5823C34.0783 10.7891 33.2573 10.3259 31.6153 9.39945L23.24 4.67385C21.6563 3.78028 20.8645 3.3335 20 3.3335C19.1355 3.3335 18.3437 3.78028 16.76 4.67385L8.38467 9.39945C6.7427 10.3259 5.92172 10.7891 5.46167 11.5823C5.0016 12.3756 5.00115 13.3216 5.00022 15.2138L5 23.1383C5 29.5158 5 32.7045 6.95262 34.6857C8.90525 36.6668 12.0479 36.6668 18.3333 36.6668L21.6667 36.6668C27.952 36.6668 31.0948 36.6668 33.0473 34.6857C35 32.7045 35 29.5158 35 23.1383L34.9998 15.2138Z" fill-rule="nonzero" stroke="rgb(115,115,115)" stroke-linecap="round" stroke-width="1.5" />
	<path id="Vector" d="M16.6667 21.6667L13.3334 21.6667M26.6667 21.6667L23.3334 21.6667M16.6667 15L13.3334 15M16.6667 28.3333L13.3334 28.3333M26.6667 15L23.3334 15M26.6667 28.3333L23.3334 28.3333" fill-rule="nonzero" stroke="rgb(115,115,115)" stroke-linecap="round" stroke-width="1.5" />
</svg>
