<svg viewBox="0 0 48 48" xmlns="http://www.w3.org/2000/svg" xmlns:xlink="http://www.w3.org/1999/xlink" width="48.000000" height="48.000000" fill="none" customFrame="#000000">
	<defs>
		<clipPath id="clipPath_0">
			<rect width="48.000000" height="48.000000" x="0.000000" y="0.000000" fill="rgb(255,255,255)" />
		</clipPath>
	</defs>
	<g id="Group 4">
		<g id="flow-chart 1" clip-path="url(#clipPath_0)" customFrame="url(#clipPath_0)">
			<rect id="flow-chart 1" width="48.000000" height="48.000000" x="0.000000" y="0.000000" fill="rgb(255,255,255)" fill-opacity="0" />
			<g id="Group">
				<path id="Vector" d="M32.25 39.75L27.75 39.75L27.75 35.6655L34.4153 31.5L27.75 27.3345L27.75 22.5L32.25 22.5L32.25 16.5L27.75 16.5L27.75 11.25L33.75 11.25L33.75 0.75L20.25 0.75L20.25 11.25L26.25 11.25L26.25 16.5L21.75 16.5L21.75 18.75L15 18.75L15 20.25L21.75 20.25L21.75 22.5L26.25 22.5L26.25 27.3345L19.5848 31.5L26.25 35.6655L26.25 39.75L21.75 39.75C20.5095 39.75 19.5 40.7595 19.5 42L19.5 45C19.5 46.2405 20.5095 47.25 21.75 47.25L32.25 47.25C33.4905 47.25 34.5 46.2405 34.5 45L34.5 42C34.5 40.7595 33.4905 39.75 32.25 39.75ZM21.75 2.25L32.25 2.25L32.25 9.75L21.75 9.75L21.75 2.25ZM23.25 18L30.75 18L30.75 21L23.25 21L23.25 18ZM27 28.6343L31.5847 31.5L27 34.3657L22.4152 31.5L27 28.6343ZM33 45C33 45.4132 32.6632 45.75 32.25 45.75L21.75 45.75C21.3368 45.75 21 45.4132 21 45L21 42C21 41.5868 21.3368 41.25 21.75 41.25L32.25 41.25C32.6632 41.25 33 41.5868 33 42L33 45Z" fill="rgb(28,28,28)" fill-rule="nonzero" />
				<path id="Vector" d="M13.7197 41.03L15.4395 42.7498L8.862 42.7498C8.6355 42.1145 8.13525 41.6143 7.5 41.3878L7.5 25.4998L6 25.4998L6 41.3878C5.12925 41.6983 4.5 42.5233 4.5 43.4998C4.5 44.7403 5.5095 45.7498 6.75 45.7498C7.7265 45.7498 8.5515 45.1205 8.862 44.2498L15.4395 44.2498L13.7197 45.9695L14.7803 47.03L18.3105 43.4998L14.7803 39.9695L13.7197 41.03ZM6.75 44.2498C6.33675 44.2498 6 43.913 6 43.4998C6 43.0865 6.33675 42.7498 6.75 42.7498C7.16325 42.7498 7.5 43.0865 7.5 43.4998C7.5 43.913 7.16325 44.2498 6.75 44.2498Z" fill="rgb(28,28,28)" fill-rule="nonzero" />
				<path id="Vector" d="M45.75 29.388L45.75 8.112C46.6208 7.8015 47.25 6.9765 47.25 6C47.25 4.7595 46.2405 3.75 45 3.75C44.0235 3.75 43.1985 4.37925 42.888 5.25L35.25 5.25L35.25 6.75L42.888 6.75C43.1145 7.38525 43.6148 7.8855 44.25 8.112L44.25 29.3888C43.6148 29.6153 43.1145 30.1155 42.888 30.7507L37.8105 30.7507L39.5303 29.031L38.4698 27.9705L34.9395 31.5L38.4698 35.0303L39.5303 33.9697L37.8105 32.25L42.888 32.25C43.1985 33.1208 44.0235 33.75 45 33.75C46.2405 33.75 47.25 32.7405 47.25 31.5C47.25 30.5235 46.6208 29.6985 45.75 29.388ZM45 5.25C45.4133 5.25 45.75 5.58675 45.75 6C45.75 6.41325 45.4133 6.75 45 6.75C44.5868 6.75 44.25 6.41325 44.25 6C44.25 5.58675 44.5868 5.25 45 5.25ZM45 32.25C44.5868 32.25 44.25 31.9132 44.25 31.5C44.25 31.0868 44.5868 30.75 45 30.75C45.4133 30.75 45.75 31.0868 45.75 31.5C45.75 31.9132 45.4133 32.25 45 32.25Z" fill="rgb(28,28,28)" fill-rule="nonzero" />
				<path id="Vector" d="M13.2907 19.4999L6.74998 14.8281L0.209229 19.4999L6.74998 24.1716L13.2907 19.4999ZM6.74998 16.6716L10.7092 19.4999L6.74998 22.3281L2.79073 19.4999L6.74998 16.6716Z" fill="rgb(28,28,28)" fill-rule="nonzero" />
				<path id="Vector" d="M23.25 3.75L30.75 3.75L30.75 5.25L23.25 5.25L23.25 3.75Z" fill="rgb(28,28,28)" fill-rule="nonzero" />
				<path id="Vector" d="M23.25 6.75L27.75 6.75L27.75 8.25L23.25 8.25L23.25 6.75Z" fill="rgb(28,28,28)" fill-rule="nonzero" />
				<path id="Vector" d="M29.25 6.75L30.75 6.75L30.75 8.25L29.25 8.25L29.25 6.75Z" fill="rgb(28,28,28)" fill-rule="nonzero" />
				<path id="Vector" d="M42 42.7498L43.5 42.7498L43.5 44.2498L42 44.2498L42 42.7498Z" fill="rgb(28,28,28)" fill-rule="nonzero" />
				<path id="Vector" d="M39 42.7498L40.5 42.7498L40.5 44.2498L39 44.2498L39 42.7498Z" fill="rgb(28,28,28)" fill-rule="nonzero" />
				<path id="Vector" d="M36 42.7498L37.5 42.7498L37.5 44.2498L36 44.2498L36 42.7498Z" fill="rgb(28,28,28)" fill-rule="nonzero" />
				<path id="Vector" d="M14.25 6.75L15.75 6.75L15.75 8.25L14.25 8.25L14.25 6.75Z" fill="rgb(28,28,28)" fill-rule="nonzero" />
				<path id="Vector" d="M17.25 6.75L18.75 6.75L18.75 8.25L17.25 8.25L17.25 6.75Z" fill="rgb(28,28,28)" fill-rule="nonzero" />
				<path id="Vector" d="M11.25 6.75L12.75 6.75L12.75 8.25L11.25 8.25L11.25 6.75Z" fill="rgb(28,28,28)" fill-rule="nonzero" />
			</g>
		</g>
	</g>
</svg>
