<svg viewBox="0 0 48 48" xmlns="http://www.w3.org/2000/svg" xmlns:xlink="http://www.w3.org/1999/xlink" width="48.000000" height="48.000000" fill="none" customFrame="#000000">
	<mask id="mask_1" width="47.999996" height="47.999996" x="0.000000" y="0.000000" maskUnits="objectBoundingBox">
		<g filter="url(#pixso_custom_mask_type_outline)">
			<g id="clipPath2798" />
		</g>
	</mask>
	<mask id="mask_0" width="47.999996" height="47.999996" x="0.000000" y="0.000000" maskUnits="objectBoundingBox">
		<g filter="url(#pixso_custom_mask_type_outline)">
			<g id="clipPath2762" />
		</g>
	</mask>
	<defs>
		<clipPath id="clipPath_1">
			<rect width="48.000000" height="48.000000" x="0.000000" y="0.000000" fill="rgb(255,255,255)" />
		</clipPath>
		<filter id="pixso_custom_mask_type_outline">
			<feColorMatrix type="matrix" values="0 0 0 0 1 0 0 0 0 1 0 0 0 0 1 0 0 0 1 0 " />
		</filter>
	</defs>
	<g id="Group 3">
		<g id="lightbulb 1" clip-path="url(#clipPath_1)" customFrame="url(#clipPath_1)">
			<rect id="lightbulb 1" width="48.000000" height="48.000000" x="0.000000" y="0.000000" fill="rgb(255,255,255)" fill-opacity="0" />
			<g id="g2754">
				<g id="g2756">
					<g id="Clip path group" mask="url(#mask_0)">
						<g id="g2758">
							<g id="g2764">
								<path id="path2766" d="M0 0L3.08006 0" stroke="rgb(28,28,28)" stroke-linecap="round" stroke-linejoin="round" stroke-width="2" transform="matrix(0,-1,-1,-0,24,3.78296)" />
							</g>
						</g>
					</g>
				</g>
				<g id="g2768">
					<path id="path2770" d="M2.17791 0L0 2.17781" fill-rule="nonzero" stroke="rgb(28,28,28)" stroke-linecap="round" stroke-linejoin="round" stroke-width="2" transform="matrix(1,0,0,-1,9.92871,8.70947)" />
				</g>
				<g id="g2772">
					<path id="path2774" d="M2.17791 0L0 2.17791" fill-rule="nonzero" stroke="rgb(28,28,28)" stroke-linecap="round" stroke-linejoin="round" stroke-width="2" transform="matrix(1,0,0,-1,35.8933,34.6741)" />
				</g>
				<g id="g2776">
					<path id="path2778" d="M3.08006 0L0 0" stroke="rgb(28,28,28)" stroke-linecap="round" stroke-linejoin="round" stroke-width="2" transform="matrix(1,0,0,-1,4.10022,20.6028)" />
				</g>
				<g id="g2780">
					<path id="path2782" d="M3.08006 0L0 0" stroke="rgb(28,28,28)" stroke-linecap="round" stroke-linejoin="round" stroke-width="2" transform="matrix(1,0,0,-1,40.8197,20.6028)" />
				</g>
				<g id="g2784">
					<path id="path2786" d="M2.17791 2.17791L0 0" fill-rule="nonzero" stroke="rgb(28,28,28)" stroke-linecap="round" stroke-linejoin="round" stroke-width="2" transform="matrix(1,0,0,-1,9.92871,34.6741)" />
				</g>
				<g id="g2788">
					<path id="path2790" d="M2.17791 2.17781L0 0" fill-rule="nonzero" stroke="rgb(28,28,28)" stroke-linecap="round" stroke-linejoin="round" stroke-width="2" transform="matrix(1,0,0,-1,35.8933,8.70923)" />
				</g>
				<g id="g2792">
					<g id="Clip path group" mask="url(#mask_1)">
						<g id="g2794">
							<g id="g2800">
								<path id="path2802" d="M20.4824 0C20.8404 0.411188 21.2379 0.792375 21.6713 1.13794C24.7407 3.58444 26.7077 7.35506 26.7077 11.5852C26.7077 18.9019 20.8236 24.8441 13.5293 24.9381C6.14666 25.0331 0.0419367 19.0455 0.000217987 11.6624C-0.00559451 10.6338 0.104937 9.63178 0.319344 8.66916" fill-rule="nonzero" stroke="rgb(28,28,28)" stroke-linecap="round" stroke-linejoin="round" stroke-width="2" transform="matrix(1,0,0,-1,10.6461,31.7373)" />
							</g>
							<g id="g2804">
								<path id="path2806" d="M0 11.3579C0.875625 9.62456 2.11791 8.10816 3.62503 6.9105C5.73581 5.23313 6.98062 2.69634 6.98062 0.000374794L16.8731 0C16.8731 1.01503 17.0504 2.00644 17.3839 2.93794" fill-rule="nonzero" stroke="rgb(28,28,28)" stroke-linecap="round" stroke-linejoin="round" stroke-width="2" transform="matrix(1,0,0,-1,12.0731,37.5225)" />
							</g>
							<g id="g2808">
								<path id="path2810" d="M0.842531 0C0.37725 0 0 0.377156 0 0.842531L0 2.2755C0 2.74078 0.37725 3.11812 0.842531 3.11812L11.8629 3.11812C12.3282 3.11812 12.7055 2.74078 12.7055 2.2755L12.7055 0.842531C12.7055 0.377156 12.3282 0 11.8629 0L0.842531 0Z" fill-rule="nonzero" stroke="rgb(28,28,28)" stroke-linecap="round" stroke-linejoin="round" stroke-width="2" transform="matrix(1,0,0,-1,17.6472,40.6404)" />
							</g>
							<g id="g2812">
								<path id="path2814" d="M0.842531 0C0.37725 0 0 0.37725 0 0.842531L0 2.2755C0 2.74087 0.37725 3.11812 0.842531 3.11812L11.8629 3.11812C12.3282 3.11812 12.7055 2.74087 12.7055 2.2755L12.7055 0.842531C12.7055 0.37725 12.3282 0 11.8629 0L0.842531 0Z" fill-rule="nonzero" stroke="rgb(28,28,28)" stroke-linecap="round" stroke-linejoin="round" stroke-width="2" transform="matrix(1,0,0,-1,17.6472,43.7585)" />
							</g>
							<g id="g2816">
								<path id="path2818" d="M1.08712 0.996469C1.35806 0.390281 1.96003 0 2.62397 0L6.83822 0C7.50216 0 8.10412 0.390281 8.37516 0.996375L9.46228 3.42816L0 3.42816L1.08712 0.996469Z" fill-rule="nonzero" stroke="rgb(28,28,28)" stroke-linecap="round" stroke-linejoin="round" stroke-width="2" transform="matrix(1,0,0,-1,19.2689,47.2966)" />
							</g>
							<g id="g2820">
								<path id="path2822" d="M0 0L6.33497 0" stroke="rgb(28,28,28)" stroke-linecap="round" stroke-linejoin="round" stroke-width="2" transform="matrix(0,-1,-1,-0,21.9219,37.5225)" />
							</g>
							<g id="g2824">
								<path id="path2826" d="M0 0L6.33497 0" stroke="rgb(28,28,28)" stroke-linecap="round" stroke-linejoin="round" stroke-width="2" transform="matrix(0,-1,-1,-0,26.0781,37.5225)" />
							</g>
							<g id="g2828">
								<path id="path2830" d="M0.949312 0C0.424969 0 0 0.425063 0 0.949406L0 2.21278C0 2.73703 0.424969 3.16209 0.949312 3.16209L7.68797 3.16209C8.21231 3.16209 8.63728 2.73703 8.63728 2.21278L8.63728 0.949406C8.63728 0.425063 8.21231 0 7.68797 0L0.949312 0Z" fill-rule="nonzero" stroke="rgb(28,28,28)" stroke-linecap="round" stroke-linejoin="round" stroke-width="2" transform="matrix(1,0,0,-1,19.6814,31.1875)" />
							</g>
						</g>
					</g>
				</g>
			</g>
		</g>
	</g>
</svg>
