<svg viewBox="0 0 48 48" xmlns="http://www.w3.org/2000/svg" xmlns:xlink="http://www.w3.org/1999/xlink" width="48.000000" height="48.000000" fill="none" customFrame="#000000">
	<defs>
		<clipPath id="clipPath_2">
			<rect width="48.000000" height="48.000000" x="0.000000" y="0.000000" fill="rgb(255,255,255)" />
		</clipPath>
	</defs>
	<g id="Group 5">
		<g id="supervision 1" clip-path="url(#clipPath_2)" customFrame="url(#clipPath_2)">
			<rect id="supervision 1" width="48.000000" height="48.000000" x="0.000000" y="0.000000" fill="rgb(255,255,255)" fill-opacity="0" />
			<path id="Vector" d="M12.9383 20.7955C16.2611 22.8515 20.0925 23.9377 24 23.9314C32.728 23.9698 37.0644 13.0954 30.7237 7.12553C34.4387 8.47461 37.6458 10.939 39.906 14.1814C38.6064 16.0436 36.987 17.6608 35.1229 18.9579C34.9638 19.0728 34.856 19.2456 34.8229 19.4392C34.7897 19.6327 34.8338 19.8315 34.9456 19.9929C35.0574 20.1543 35.2281 20.2654 35.4209 20.3023C35.6138 20.3393 35.8134 20.2991 35.977 20.1905C38.1352 18.6886 39.9887 16.7906 41.439 14.5974C41.5212 14.4742 41.5651 14.3295 41.5651 14.1814C41.5651 14.0333 41.5212 13.8885 41.439 13.7654C39.5252 10.8942 36.9321 8.53994 33.8899 6.91165C30.8478 5.28336 27.4506 4.4314 24.0001 4.4314C20.5495 4.4314 17.1523 5.28336 14.1102 6.91165C11.068 8.53994 8.47487 10.8942 6.56109 13.7654C6.47904 13.8884 6.43519 14.033 6.43506 14.1809C6.43493 14.3288 6.47851 14.4734 6.56034 14.5966C8.21126 17.1013 10.3876 19.2166 12.9383 20.7955ZM12.88 9.40343C14.2406 8.45657 15.7184 7.69065 17.2765 7.12493C16.3232 8.03696 15.5637 9.13204 15.0437 10.3445C14.5237 11.5571 14.2537 12.8621 14.25 14.1814C14.3119 15.0685 14.3443 18.2195 15.7312 17.8011C15.9193 17.7364 16.0741 17.5996 16.1614 17.4208C16.2487 17.242 16.2614 17.0359 16.1968 16.8478C12.9556 6.44198 27.9709 1.30821 31.8033 11.5156C33.7115 16.6636 29.503 22.5759 23.9999 22.4313C20.8802 22.4389 17.8048 21.6928 15.0354 20.2566C12.2659 18.8203 9.88435 16.7364 8.09326 14.1821C9.39379 12.3187 11.0145 10.7008 12.88 9.40343Z" fill="rgb(28,28,28)" fill-rule="nonzero" />
			<path id="Vector" d="M24 18.2031C29.3164 18.034 29.3152 10.3258 23.9999 10.1575C18.6836 10.3266 18.6849 18.0348 24 18.2031ZM24 11.6575C24.664 11.6653 25.2982 11.9345 25.7649 12.4068C26.2317 12.879 26.4935 13.5163 26.4935 14.1803C26.4935 14.8444 26.2317 15.4816 25.7649 15.9539C25.2981 16.4262 24.6639 16.6954 23.9999 16.7031C23.336 16.6954 22.7018 16.4261 22.235 15.9538C21.7682 15.4816 21.5065 14.8443 21.5065 14.1803C21.5065 13.5162 21.7683 12.879 22.2351 12.4067C22.7019 11.9344 23.336 11.6652 24 11.6575Z" fill="rgb(28,28,28)" fill-rule="nonzero" />
			<path id="Vector" d="M24 26.1809C23.8011 26.1809 23.6103 26.2599 23.4697 26.4006C23.329 26.5412 23.25 26.732 23.25 26.9309L23.25 41.0076L21.2574 39.0148C21.1159 38.8787 20.9266 38.8036 20.7302 38.8055C20.5339 38.8075 20.3461 38.8863 20.2073 39.0252C20.0684 39.164 19.9896 39.3518 19.9876 39.5481C19.9857 39.7445 20.0609 39.9338 20.1969 40.0753L23.4695 43.3483C23.5391 43.418 23.6218 43.4733 23.7128 43.511C23.8039 43.5488 23.9014 43.5682 24 43.5682C24.0985 43.5682 24.1961 43.5488 24.2871 43.511C24.3782 43.4733 24.4609 43.418 24.5305 43.3483L27.8031 40.0753C27.9392 39.9337 28.0143 39.7444 28.0123 39.5481C28.0104 39.3517 27.9315 39.164 27.7927 39.0251C27.6538 38.8863 27.466 38.8074 27.2697 38.8055C27.0733 38.8036 26.8841 38.8787 26.7425 39.0148L24.75 41.0076L24.75 26.9309C24.75 26.732 24.671 26.5412 24.5303 26.4006C24.3897 26.2599 24.1989 26.1809 24 26.1809Z" fill="rgb(28,28,28)" fill-rule="nonzero" />
			<path id="Vector" d="M3.05823 34.7185C3.11875 34.8537 3.21644 34.9689 3.33992 35.0506C3.4634 35.1324 3.60757 35.1774 3.75563 35.1803L8.37854 35.1803C8.57492 35.1765 8.76196 35.0958 8.89949 34.9556C9.03701 34.8153 9.11405 34.6267 9.11404 34.4303C9.11403 34.2339 9.03699 34.0453 8.89945 33.9051C8.76192 33.7649 8.57487 33.6842 8.37849 33.6803L5.56165 33.6803L14.1427 25.0993C14.2123 25.0296 14.2676 24.947 14.3053 24.856C14.3429 24.765 14.3623 24.6675 14.3623 24.569C14.3623 24.4705 14.3429 24.373 14.3053 24.282C14.2676 24.191 14.2123 24.1084 14.1427 24.0387C14.0731 23.9691 13.9904 23.9139 13.8994 23.8762C13.8084 23.8385 13.7109 23.8191 13.6124 23.8191C13.5139 23.8191 13.4164 23.8385 13.3254 23.8762C13.2345 23.9139 13.1518 23.9691 13.0822 24.0387L4.5 32.6209L4.5 29.8018C4.49617 29.6054 4.41546 29.4184 4.27522 29.2809C4.13498 29.1433 3.9464 29.0663 3.74998 29.0663C3.55356 29.0663 3.36498 29.1434 3.22475 29.2809C3.08452 29.4184 3.00382 29.6055 3 29.8018L3 34.4303C3.00026 34.5293 3.02005 34.6272 3.05823 34.7185Z" fill="rgb(28,28,28)" fill-rule="nonzero" />
			<path id="Vector" d="M44.25 29.0518C44.0511 29.0518 43.8603 29.1308 43.7197 29.2714C43.579 29.4121 43.5 29.6029 43.5 29.8018L43.5 32.6209L34.9178 24.0387C34.7763 23.9027 34.587 23.8276 34.3907 23.8296C34.1944 23.8316 34.0067 23.9105 33.8679 24.0493C33.729 24.1881 33.6502 24.3758 33.6482 24.5721C33.6463 24.7685 33.7213 24.9577 33.8573 25.0993L42.4384 33.6803L39.6215 33.6803C39.4251 33.6841 39.238 33.7648 39.1005 33.9051C38.963 34.0453 38.886 34.2339 38.886 34.4303C38.886 34.6267 38.963 34.8153 39.1005 34.9556C39.2381 35.0958 39.4251 35.1765 39.6215 35.1803L44.2444 35.1803C44.4428 35.1772 44.6324 35.0974 44.7733 34.9576C44.9142 34.8177 44.9954 34.6288 45 34.4303L45 29.8018C45 29.6029 44.921 29.4121 44.7803 29.2714C44.6397 29.1308 44.4489 29.0518 44.25 29.0518Z" fill="rgb(28,28,28)" fill-rule="nonzero" />
		</g>
	</g>
</svg>
