<svg viewBox="0 0 40 40" xmlns="http://www.w3.org/2000/svg" xmlns:xlink="http://www.w3.org/1999/xlink" width="40.000000" height="40.000000" fill="none" customFrame="#000000">
	<rect id="user-multiple" width="40.000000" height="40.000000" x="0.000000" y="0.000000" />
	<path id="Vector" d="M31.0269 33.3335L31.8439 33.3335C33.7602 33.3335 35.2845 32.4603 36.6532 31.2395C40.13 28.1378 31.9569 25.0002 29.1667 25.0002M25.8334 8.44811C26.2119 8.37305 26.6049 8.3335 27.008 8.3335C30.0412 8.3335 32.5 10.5721 32.5 13.3335C32.5 16.0949 30.0412 18.3335 27.008 18.3335C26.6049 18.3335 26.2119 18.294 25.8334 18.2188" fill-rule="nonzero" stroke="rgb(115,115,115)" stroke-linecap="round" stroke-width="1.5" />
	<path id="Vector" d="M3.4898 32.7457C5.02265 34.06 6.72985 35 8.8762 35L21.1238 35C23.2702 35 24.9773 34.06 26.5102 32.7457C29.6482 30.0552 24.4962 27.905 22.5312 26.852C17.9233 24.3827 12.0767 24.3827 7.46885 26.852C5.5039 27.905 0.351898 30.0552 3.4898 32.7457Z" fill-rule="nonzero" stroke="rgb(115,115,115)" stroke-width="1.5" />
	<path id="Vector" d="M14.9999 19.1668C11.318 19.1668 8.33325 16.1821 8.33325 12.5002C8.33325 8.81826 11.318 5.8335 14.9999 5.8335C18.6818 5.8335 21.6666 8.81826 21.6666 12.5002C21.6666 16.1821 18.6818 19.1668 14.9999 19.1668Z" fill-rule="nonzero" stroke="rgb(115,115,115)" stroke-width="1.5" />
</svg>
