<svg viewBox="0 0 40 40" xmlns="http://www.w3.org/2000/svg" xmlns:xlink="http://www.w3.org/1999/xlink" width="40.000000" height="40.000000" fill="none" customFrame="#000000">
	<rect id="user-group" width="40.000000" height="40.000000" x="0.000000" y="0.000000" />
	<path id="Vector" d="M34.6233 30C35.8722 30 36.8655 29.2142 37.7575 28.1152C39.5832 25.8657 36.5855 24.068 35.4423 23.1877C34.28 22.2927 32.9823 21.7857 31.6667 21.6667M30 18.3333C32.3012 18.3333 34.1667 16.4678 34.1667 14.1667C34.1667 11.8655 32.3012 10 30 10" fill-rule="nonzero" stroke="rgb(115,115,115)" stroke-linecap="round" stroke-width="1.5" />
	<path id="Vector" d="M5.37662 30C4.12778 30 3.13447 29.2142 2.2426 28.1152C0.416832 25.8657 3.41447 24.068 4.55777 23.1877C5.71997 22.2927 7.01765 21.7857 8.33335 21.6667M9.16668 18.3333C6.8655 18.3333 5.00002 16.4678 5.00002 14.1667C5.00002 11.8655 6.8655 10 9.16668 10" fill-rule="nonzero" stroke="rgb(115,115,115)" stroke-linecap="round" stroke-width="1.5" />
	<path id="Vector" d="M10.0245 31.0789C11.353 32.3932 12.8326 33.3333 14.6927 33.3333L25.3074 33.3333C27.1675 33.3333 28.647 32.3932 29.9755 31.0789C32.695 28.3884 28.23 26.2383 26.527 25.1853C22.5335 22.7159 17.4665 22.7159 13.473 25.1853C11.7701 26.2383 7.305 28.3884 10.0245 31.0789Z" fill-rule="nonzero" stroke="rgb(115,115,115)" stroke-linecap="round" stroke-linejoin="round" stroke-width="1.5" />
	<path id="Vector" d="M20 18.3334C16.7784 18.3334 14.1667 15.7217 14.1667 12.5001C14.1667 9.27841 16.7784 6.66675 20 6.66675C23.2217 6.66675 25.8334 9.27841 25.8334 12.5001C25.8334 15.7217 23.2217 18.3334 20 18.3334Z" fill-rule="nonzero" stroke="rgb(115,115,115)" stroke-width="1.5" />
</svg>
